<?xml version="1.0" encoding="utf-8"?>
<!-- Generator: Adobe Illustrator 16.0.0, SVG Export Plug-In . SVG Version: 6.00 Build 0)  -->
<!DOCTYPE svg PUBLIC "-//W3C//DTD SVG 1.1//EN" "http://www.w3.org/Graphics/SVG/1.1/DTD/svg11.dtd">
<svg version="1.1" xmlns="http://www.w3.org/2000/svg" xmlns:xlink="http://www.w3.org/1999/xlink" x="0px" y="0px" width="252px"
	 height="144px" viewBox="0 0 252 144" style="enable-background:new 0 0 252 144;" xml:space="preserve">
<style type="text/css">
<![CDATA[
	.st0{fill:none;stroke:#000000;stroke-miterlimit:10;}
	.st1{fill:#FFFFFF;}
]]>
</style>
<g id="Layer_1">
</g>
<g id="Layer_4">
	<polygon class="st0" points="68,47.3 204.8,47.3 204.8,83.8 197.9,90.3 75.2,90.3 68,83.8 	"/>
	<rect x="76" y="46.6" class="st1" width="121.9" height="1.2"/>
	<rect x="76" y="89.6" class="st1" width="58.5" height="1.2"/>
	<rect x="137.6" y="89.6" class="st1" width="60.9" height="1.2"/>
	<rect x="203.8" y="48.7" class="st1" width="1.5" height="36.1"/>
	<rect x="200" y="82.8" transform="matrix(0.7 0.7142 -0.7142 0.7 122.6978 -117.1787)" class="st1" width="1.6" height="9.2"/>
	<rect x="71.1" y="80.5" transform="matrix(0.6598 -0.7514 0.7514 0.6598 -41.04 83.6408)" class="st1" width="1.5" height="13.4"/>
</g>
<g id="Layer_2">
	<g id="W.R.Funk">
		<path d="M83.7,59.9l4.9,12.4l4.3-11.2l4.4,11.3l4.7-12.5h1.3l-6.3,16.5h-0.8l-4-10.2l-3.9,10.2h-0.9l-6.5-16.5H83.7z"/>
		<path d="M104.1,74.1c0.2,0,0.4,0,0.5,0.1s0.3,0.2,0.4,0.3s0.2,0.3,0.3,0.4s0.1,0.3,0.1,0.5s0,0.3-0.1,0.5s-0.2,0.3-0.3,0.4
			s-0.3,0.2-0.4,0.3s-0.3,0.1-0.5,0.1s-0.4,0-0.5-0.1s-0.3-0.2-0.4-0.3s-0.2-0.3-0.3-0.4s-0.1-0.3-0.1-0.5s0-0.3,0.1-0.5
			s0.2-0.3,0.3-0.4s0.3-0.2,0.4-0.3S103.9,74.1,104.1,74.1z"/>
		<path d="M108.8,59.9h5.6c1,0,1.8,0.1,2.6,0.3s1.4,0.5,1.8,0.9s0.9,0.8,1.1,1.3s0.4,1.1,0.4,1.7c0,0.5-0.1,1-0.3,1.4
			s-0.5,0.8-0.8,1.2s-0.8,0.7-1.3,0.9s-1,0.5-1.6,0.6l5.9,7.9h-3.2l-5.7-7.7h-1.9v7.7h-2.7V59.9z M111.6,67.8h1.6
			c0.6,0,1.2-0.1,1.7-0.2s1-0.4,1.4-0.7s0.7-0.7,0.9-1.1s0.3-0.9,0.3-1.4c0-0.5-0.1-0.9-0.3-1.3s-0.4-0.8-0.7-1.1s-0.7-0.5-1.1-0.7
			S114.5,61,114,61h-2.4V67.8z"/>
		<path d="M125,74.1c0.2,0,0.4,0,0.5,0.1s0.3,0.2,0.4,0.3s0.2,0.3,0.3,0.4s0.1,0.3,0.1,0.5s0,0.3-0.1,0.5s-0.2,0.3-0.3,0.4
			s-0.3,0.2-0.4,0.3s-0.3,0.1-0.5,0.1s-0.4,0-0.5-0.1s-0.3-0.2-0.4-0.3s-0.2-0.3-0.3-0.4s-0.1-0.3-0.1-0.5s0-0.3,0.1-0.5
			s0.2-0.3,0.3-0.4s0.3-0.2,0.4-0.3S124.9,74.1,125,74.1z"/>
		<path d="M140.5,59.9V61h-8v5.8h5.8v1.1h-5.8v8.4h-2.7V59.9H140.5z"/>
		<path d="M142.3,59.9h2.7v10.6c0,0.7,0.1,1.3,0.4,2c0.2,0.6,0.6,1.2,1,1.6s1,0.8,1.6,1.1s1.3,0.4,2.1,0.4c0.8,0,1.5-0.1,2.1-0.4
			s1.2-0.6,1.6-1.1s0.8-1,1-1.6c0.2-0.6,0.4-1.3,0.4-2V59.9h1.2v10.6c0,0.8-0.1,1.6-0.4,2.4c-0.3,0.7-0.7,1.4-1.3,1.9
			s-1.3,1-2.2,1.3s-2,0.5-3.3,0.5c-1.1,0-2.1-0.2-3-0.5s-1.6-0.8-2.2-1.3s-1-1.2-1.3-2c-0.3-0.8-0.5-1.5-0.5-2.4V59.9z"/>
		<path d="M160.3,59.9h1.5l10.7,11.9h0.1V59.9h1.2v16.7h-0.6l-11.6-13.3h-0.1v12.9h-1.2V59.9z"/>
		<path d="M177.9,59.9h2.7v7.2l8.6-7.2h1.8l-8.2,6.9l10.3,9.5h-3.5l-9.1-8.3v8.3h-2.7V59.9z"/>
	</g>
	<g id="William">
		<path d="M79.3,47.2c0,0.4-0.1,0.6-0.2,0.8s-0.3,0.3-0.5,0.3c-0.2,0-0.4-0.1-0.5-0.3s-0.2-0.5-0.2-0.8c0-0.4,0.1-0.6,0.2-0.8
			s0.3-0.3,0.5-0.3c0.2,0,0.4,0.1,0.5,0.3S79.3,46.8,79.3,47.2z M78.1,47.2c0,0.3,0,0.5,0.1,0.7c0.1,0.1,0.2,0.2,0.4,0.2
			c0.2,0,0.3-0.1,0.4-0.2c0.1-0.1,0.1-0.4,0.1-0.7s0-0.5-0.1-0.7c-0.1-0.1-0.2-0.2-0.4-0.2c-0.2,0-0.3,0.1-0.4,0.2
			C78.2,46.6,78.1,46.9,78.1,47.2z"/>
		<path d="M80.8,48.3h-0.2v-1.5c0-0.1,0-0.2,0-0.4c0,0,0,0-0.1,0.1s-0.1,0.1-0.3,0.3L80,46.5l0.6-0.4h0.2V48.3z"/>
		<path d="M83.3,47.2c0,0.4-0.1,0.6-0.2,0.8s-0.3,0.3-0.5,0.3c-0.2,0-0.4-0.1-0.5-0.3s-0.2-0.5-0.2-0.8c0-0.4,0.1-0.6,0.2-0.8
			s0.3-0.3,0.5-0.3c0.2,0,0.4,0.1,0.5,0.3S83.3,46.8,83.3,47.2z M82.2,47.2c0,0.3,0,0.5,0.1,0.7c0.1,0.1,0.2,0.2,0.4,0.2
			c0.2,0,0.3-0.1,0.4-0.2c0.1-0.1,0.1-0.4,0.1-0.7s0-0.5-0.1-0.7c-0.1-0.1-0.2-0.2-0.4-0.2c-0.2,0-0.3,0.1-0.4,0.2
			C82.2,46.6,82.2,46.9,82.2,47.2z"/>
		<path d="M84.8,48.3h-0.2v-1.5c0-0.1,0-0.2,0-0.4c0,0,0,0-0.1,0.1s-0.1,0.1-0.3,0.3l-0.1-0.2l0.6-0.4h0.2V48.3z"/>
		<path d="M87.4,47.2c0,0.4-0.1,0.6-0.2,0.8s-0.3,0.3-0.5,0.3c-0.2,0-0.4-0.1-0.5-0.3S86,47.5,86,47.2c0-0.4,0.1-0.6,0.2-0.8
			s0.3-0.3,0.5-0.3c0.2,0,0.4,0.1,0.5,0.3S87.4,46.8,87.4,47.2z M86.2,47.2c0,0.3,0,0.5,0.1,0.7c0.1,0.1,0.2,0.2,0.4,0.2
			c0.2,0,0.3-0.1,0.4-0.2c0.1-0.1,0.1-0.4,0.1-0.7s0-0.5-0.1-0.7c-0.1-0.1-0.2-0.2-0.4-0.2c-0.2,0-0.3,0.1-0.4,0.2
			C86.2,46.6,86.2,46.9,86.2,47.2z"/>
		<path d="M88.9,48.3h-0.2v-1.5c0-0.1,0-0.2,0-0.4c0,0,0,0-0.1,0.1s-0.1,0.1-0.3,0.3l-0.1-0.2l0.6-0.4h0.2V48.3z"/>
		<path d="M90.9,48.3h-0.2v-1.5c0-0.1,0-0.2,0-0.4c0,0,0,0-0.1,0.1s-0.1,0.1-0.3,0.3l-0.1-0.2l0.6-0.4h0.2V48.3z"/>
		<path d="M92.9,48.3h-0.2v-1.5c0-0.1,0-0.2,0-0.4c0,0,0,0-0.1,0.1s-0.1,0.1-0.3,0.3l-0.1-0.2l0.6-0.4h0.2V48.3z"/>
		<path d="M96.5,47.2c0,0.4-0.1,0.6-0.2,0.8s-0.3,0.3-0.5,0.3c-0.2,0-0.4-0.1-0.5-0.3s-0.2-0.5-0.2-0.8c0-0.4,0.1-0.6,0.2-0.8
			s0.3-0.3,0.5-0.3c0.2,0,0.4,0.1,0.5,0.3S96.5,46.8,96.5,47.2z M95.3,47.2c0,0.3,0,0.5,0.1,0.7c0.1,0.1,0.2,0.2,0.4,0.2
			c0.2,0,0.3-0.1,0.4-0.2c0.1-0.1,0.1-0.4,0.1-0.7s0-0.5-0.1-0.7c-0.1-0.1-0.2-0.2-0.4-0.2c-0.2,0-0.3,0.1-0.4,0.2
			C95.4,46.6,95.3,46.9,95.3,47.2z"/>
		<path d="M98,48.3h-0.2v-1.5c0-0.1,0-0.2,0-0.4c0,0,0,0-0.1,0.1s-0.1,0.1-0.3,0.3l-0.1-0.2l0.6-0.4H98V48.3z"/>
		<path d="M100,48.3h-0.2v-1.5c0-0.1,0-0.2,0-0.4c0,0,0,0-0.1,0.1s-0.1,0.1-0.3,0.3l-0.1-0.2l0.6-0.4h0.2V48.3z"/>
		<path d="M102.6,47.2c0,0.4-0.1,0.6-0.2,0.8s-0.3,0.3-0.5,0.3c-0.2,0-0.4-0.1-0.5-0.3s-0.2-0.5-0.2-0.8c0-0.4,0.1-0.6,0.2-0.8
			s0.3-0.3,0.5-0.3c0.2,0,0.4,0.1,0.5,0.3S102.6,46.8,102.6,47.2z M101.4,47.2c0,0.3,0,0.5,0.1,0.7c0.1,0.1,0.2,0.2,0.4,0.2
			c0.2,0,0.3-0.1,0.4-0.2c0.1-0.1,0.1-0.4,0.1-0.7s0-0.5-0.1-0.7c-0.1-0.1-0.2-0.2-0.4-0.2c-0.2,0-0.3,0.1-0.4,0.2
			C101.4,46.6,101.4,46.9,101.4,47.2z"/>
		<path d="M104.1,48.3h-0.2v-1.5c0-0.1,0-0.2,0-0.4c0,0,0,0-0.1,0.1s-0.1,0.1-0.3,0.3l-0.1-0.2l0.6-0.4h0.2V48.3z"/>
		<path d="M106.6,47.2c0,0.4-0.1,0.6-0.2,0.8s-0.3,0.3-0.5,0.3c-0.2,0-0.4-0.1-0.5-0.3s-0.2-0.5-0.2-0.8c0-0.4,0.1-0.6,0.2-0.8
			s0.3-0.3,0.5-0.3c0.2,0,0.4,0.1,0.5,0.3S106.6,46.8,106.6,47.2z M105.4,47.2c0,0.3,0,0.5,0.1,0.7c0.1,0.1,0.2,0.2,0.4,0.2
			c0.2,0,0.3-0.1,0.4-0.2c0.1-0.1,0.1-0.4,0.1-0.7s0-0.5-0.1-0.7c-0.1-0.1-0.2-0.2-0.4-0.2c-0.2,0-0.3,0.1-0.4,0.2
			C105.5,46.6,105.4,46.9,105.4,47.2z"/>
		<path d="M108.6,47.2c0,0.4-0.1,0.6-0.2,0.8s-0.3,0.3-0.5,0.3c-0.2,0-0.4-0.1-0.5-0.3s-0.2-0.5-0.2-0.8c0-0.4,0.1-0.6,0.2-0.8
			s0.3-0.3,0.5-0.3c0.2,0,0.4,0.1,0.5,0.3S108.6,46.8,108.6,47.2z M107.4,47.2c0,0.3,0,0.5,0.1,0.7c0.1,0.1,0.2,0.2,0.4,0.2
			c0.2,0,0.3-0.1,0.4-0.2c0.1-0.1,0.1-0.4,0.1-0.7s0-0.5-0.1-0.7c-0.1-0.1-0.2-0.2-0.4-0.2c-0.2,0-0.3,0.1-0.4,0.2
			C107.5,46.6,107.4,46.9,107.4,47.2z"/>
		<path d="M110.1,48.3h-0.2v-1.5c0-0.1,0-0.2,0-0.4c0,0,0,0-0.1,0.1s-0.1,0.1-0.3,0.3l-0.1-0.2l0.6-0.4h0.2V48.3z"/>
		<path d="M113.7,47.2c0,0.4-0.1,0.6-0.2,0.8s-0.3,0.3-0.5,0.3c-0.2,0-0.4-0.1-0.5-0.3s-0.2-0.5-0.2-0.8c0-0.4,0.1-0.6,0.2-0.8
			s0.3-0.3,0.5-0.3c0.2,0,0.4,0.1,0.5,0.3S113.7,46.8,113.7,47.2z M112.5,47.2c0,0.3,0,0.5,0.1,0.7c0.1,0.1,0.2,0.2,0.4,0.2
			c0.2,0,0.3-0.1,0.4-0.2c0.1-0.1,0.1-0.4,0.1-0.7s0-0.5-0.1-0.7c-0.1-0.1-0.2-0.2-0.4-0.2c-0.2,0-0.3,0.1-0.4,0.2
			C112.6,46.6,112.5,46.9,112.5,47.2z"/>
		<path d="M115.2,48.3H115v-1.5c0-0.1,0-0.2,0-0.4c0,0,0,0-0.1,0.1s-0.1,0.1-0.3,0.3l-0.1-0.2l0.6-0.4h0.2V48.3z"/>
		<path d="M117.2,48.3H117v-1.5c0-0.1,0-0.2,0-0.4c0,0,0,0-0.1,0.1s-0.1,0.1-0.3,0.3l-0.1-0.2l0.6-0.4h0.2V48.3z"/>
		<path d="M119.8,47.2c0,0.4-0.1,0.6-0.2,0.8s-0.3,0.3-0.5,0.3c-0.2,0-0.4-0.1-0.5-0.3s-0.2-0.5-0.2-0.8c0-0.4,0.1-0.6,0.2-0.8
			s0.3-0.3,0.5-0.3c0.2,0,0.4,0.1,0.5,0.3S119.8,46.8,119.8,47.2z M118.6,47.2c0,0.3,0,0.5,0.1,0.7c0.1,0.1,0.2,0.2,0.4,0.2
			c0.2,0,0.3-0.1,0.4-0.2c0.1-0.1,0.1-0.4,0.1-0.7s0-0.5-0.1-0.7c-0.1-0.1-0.2-0.2-0.4-0.2c-0.2,0-0.3,0.1-0.4,0.2
			C118.6,46.6,118.6,46.9,118.6,47.2z"/>
		<path d="M121.3,48.3H121v-1.5c0-0.1,0-0.2,0-0.4c0,0,0,0-0.1,0.1s-0.1,0.1-0.3,0.3l-0.1-0.2l0.6-0.4h0.2V48.3z"/>
		<path d="M123.3,48.3H123v-1.5c0-0.1,0-0.2,0-0.4c0,0,0,0-0.1,0.1s-0.1,0.1-0.3,0.3l-0.1-0.2l0.6-0.4h0.2V48.3z"/>
		<path d="M125.8,47.2c0,0.4-0.1,0.6-0.2,0.8c-0.1,0.2-0.3,0.3-0.5,0.3c-0.2,0-0.4-0.1-0.5-0.3c-0.1-0.2-0.2-0.5-0.2-0.8
			c0-0.4,0.1-0.6,0.2-0.8c0.1-0.2,0.3-0.3,0.5-0.3c0.2,0,0.4,0.1,0.5,0.3C125.8,46.5,125.8,46.8,125.8,47.2z M124.6,47.2
			c0,0.3,0,0.5,0.1,0.7c0.1,0.1,0.2,0.2,0.3,0.2c0.2,0,0.3-0.1,0.4-0.2c0.1-0.1,0.1-0.4,0.1-0.7s0-0.5-0.1-0.7
			c-0.1-0.1-0.2-0.2-0.4-0.2c-0.2,0-0.3,0.1-0.3,0.2C124.7,46.6,124.6,46.9,124.6,47.2z"/>
		<path d="M127.8,47.2c0,0.4-0.1,0.6-0.2,0.8c-0.1,0.2-0.3,0.3-0.5,0.3c-0.2,0-0.4-0.1-0.5-0.3c-0.1-0.2-0.2-0.5-0.2-0.8
			c0-0.4,0.1-0.6,0.2-0.8c0.1-0.2,0.3-0.3,0.5-0.3c0.2,0,0.4,0.1,0.5,0.3C127.8,46.5,127.8,46.8,127.8,47.2z M126.7,47.2
			c0,0.3,0,0.5,0.1,0.7c0.1,0.1,0.2,0.2,0.3,0.2c0.2,0,0.3-0.1,0.4-0.2c0.1-0.1,0.1-0.4,0.1-0.7s0-0.5-0.1-0.7
			c-0.1-0.1-0.2-0.2-0.4-0.2c-0.2,0-0.3,0.1-0.3,0.2C126.7,46.6,126.7,46.9,126.7,47.2z"/>
		<path d="M130.9,47.2c0,0.4-0.1,0.6-0.2,0.8c-0.1,0.2-0.3,0.3-0.5,0.3c-0.2,0-0.4-0.1-0.5-0.3c-0.1-0.2-0.2-0.5-0.2-0.8
			c0-0.4,0.1-0.6,0.2-0.8c0.1-0.2,0.3-0.3,0.5-0.3c0.2,0,0.4,0.1,0.5,0.3C130.9,46.5,130.9,46.8,130.9,47.2z M129.8,47.2
			c0,0.3,0,0.5,0.1,0.7c0.1,0.1,0.2,0.2,0.3,0.2c0.2,0,0.3-0.1,0.4-0.2c0.1-0.1,0.1-0.4,0.1-0.7s0-0.5-0.1-0.7
			c-0.1-0.1-0.2-0.2-0.4-0.2c-0.2,0-0.3,0.1-0.3,0.2C129.8,46.6,129.8,46.9,129.8,47.2z"/>
		<path d="M132.4,48.3h-0.2v-1.5c0-0.1,0-0.2,0-0.4c0,0,0,0-0.1,0.1s-0.1,0.1-0.3,0.3l-0.1-0.2l0.6-0.4h0.2V48.3z"/>
		<path d="M134.4,48.3h-0.2v-1.5c0-0.1,0-0.2,0-0.4c0,0,0,0-0.1,0.1s-0.1,0.1-0.3,0.3l-0.1-0.2l0.6-0.4h0.2V48.3z"/>
		<path d="M137,47.2c0,0.4-0.1,0.6-0.2,0.8c-0.1,0.2-0.3,0.3-0.5,0.3c-0.2,0-0.4-0.1-0.5-0.3c-0.1-0.2-0.2-0.5-0.2-0.8
			c0-0.4,0.1-0.6,0.2-0.8c0.1-0.2,0.3-0.3,0.5-0.3c0.2,0,0.4,0.1,0.5,0.3C136.9,46.5,137,46.8,137,47.2z M135.8,47.2
			c0,0.3,0,0.5,0.1,0.7c0.1,0.1,0.2,0.2,0.3,0.2c0.2,0,0.3-0.1,0.4-0.2c0.1-0.1,0.1-0.4,0.1-0.7s0-0.5-0.1-0.7
			c-0.1-0.1-0.2-0.2-0.4-0.2c-0.2,0-0.3,0.1-0.3,0.2C135.8,46.6,135.8,46.9,135.8,47.2z"/>
		<path d="M138.5,48.3h-0.2v-1.5c0-0.1,0-0.2,0-0.4c0,0,0,0-0.1,0.1s-0.1,0.1-0.3,0.3l-0.1-0.2l0.6-0.4h0.2V48.3z"/>
		<path d="M140.5,48.3h-0.2v-1.5c0-0.1,0-0.2,0-0.4c0,0,0,0-0.1,0.1s-0.1,0.1-0.3,0.3l-0.1-0.2l0.6-0.4h0.2V48.3z"/>
		<path d="M143,47.2c0,0.4-0.1,0.6-0.2,0.8c-0.1,0.2-0.3,0.3-0.5,0.3c-0.2,0-0.4-0.1-0.5-0.3c-0.1-0.2-0.2-0.5-0.2-0.8
			c0-0.4,0.1-0.6,0.2-0.8c0.1-0.2,0.3-0.3,0.5-0.3c0.2,0,0.4,0.1,0.5,0.3C143,46.5,143,46.8,143,47.2z M141.8,47.2
			c0,0.3,0,0.5,0.1,0.7c0.1,0.1,0.2,0.2,0.3,0.2c0.2,0,0.3-0.1,0.4-0.2c0.1-0.1,0.1-0.4,0.1-0.7s0-0.5-0.1-0.7
			c-0.1-0.1-0.2-0.2-0.4-0.2c-0.2,0-0.3,0.1-0.3,0.2C141.9,46.6,141.8,46.9,141.8,47.2z"/>
		<path d="M145,47.2c0,0.4-0.1,0.6-0.2,0.8c-0.1,0.2-0.3,0.3-0.5,0.3c-0.2,0-0.4-0.1-0.5-0.3c-0.1-0.2-0.2-0.5-0.2-0.8
			c0-0.4,0.1-0.6,0.2-0.8c0.1-0.2,0.3-0.3,0.5-0.3c0.2,0,0.4,0.1,0.5,0.3C145,46.5,145,46.8,145,47.2z M143.9,47.2
			c0,0.3,0,0.5,0.1,0.7c0.1,0.1,0.2,0.2,0.3,0.2c0.2,0,0.3-0.1,0.4-0.2c0.1-0.1,0.1-0.4,0.1-0.7s0-0.5-0.1-0.7
			c-0.1-0.1-0.2-0.2-0.4-0.2c-0.2,0-0.3,0.1-0.3,0.2C143.9,46.6,143.9,46.9,143.9,47.2z"/>
		<path d="M148.1,47.2c0,0.4-0.1,0.6-0.2,0.8c-0.1,0.2-0.3,0.3-0.5,0.3c-0.2,0-0.4-0.1-0.5-0.3c-0.1-0.2-0.2-0.5-0.2-0.8
			c0-0.4,0.1-0.6,0.2-0.8c0.1-0.2,0.3-0.3,0.5-0.3c0.2,0,0.4,0.1,0.5,0.3C148.1,46.5,148.1,46.8,148.1,47.2z M147,47.2
			c0,0.3,0,0.5,0.1,0.7c0.1,0.1,0.2,0.2,0.3,0.2c0.2,0,0.3-0.1,0.4-0.2c0.1-0.1,0.1-0.4,0.1-0.7s0-0.5-0.1-0.7
			c-0.1-0.1-0.2-0.2-0.4-0.2c-0.2,0-0.3,0.1-0.3,0.2C147,46.6,147,46.9,147,47.2z"/>
		<path d="M149.6,48.3h-0.2v-1.5c0-0.1,0-0.2,0-0.4c0,0,0,0-0.1,0.1s-0.1,0.1-0.3,0.3l-0.1-0.2l0.6-0.4h0.2V48.3z"/>
		<path d="M151.6,48.3h-0.2v-1.5c0-0.1,0-0.2,0-0.4c0,0,0,0-0.1,0.1s-0.1,0.1-0.3,0.3l-0.1-0.2l0.6-0.4h0.2V48.3z"/>
		<path d="M154.2,47.2c0,0.4-0.1,0.6-0.2,0.8c-0.1,0.2-0.3,0.3-0.5,0.3c-0.2,0-0.4-0.1-0.5-0.3c-0.1-0.2-0.2-0.5-0.2-0.8
			c0-0.4,0.1-0.6,0.2-0.8c0.1-0.2,0.3-0.3,0.5-0.3c0.2,0,0.4,0.1,0.5,0.3C154.1,46.5,154.2,46.8,154.2,47.2z M153,47.2
			c0,0.3,0,0.5,0.1,0.7c0.1,0.1,0.2,0.2,0.3,0.2c0.2,0,0.3-0.1,0.4-0.2c0.1-0.1,0.1-0.4,0.1-0.7s0-0.5-0.1-0.7
			c-0.1-0.1-0.2-0.2-0.4-0.2c-0.2,0-0.3,0.1-0.3,0.2C153,46.6,153,46.9,153,47.2z"/>
		<path d="M155.7,48.3h-0.2v-1.5c0-0.1,0-0.2,0-0.4c0,0,0,0-0.1,0.1s-0.1,0.1-0.3,0.3l-0.1-0.2l0.6-0.4h0.2V48.3z"/>
		<path d="M158.2,47.2c0,0.4-0.1,0.6-0.2,0.8c-0.1,0.2-0.3,0.3-0.5,0.3c-0.2,0-0.4-0.1-0.5-0.3c-0.1-0.2-0.2-0.5-0.2-0.8
			c0-0.4,0.1-0.6,0.2-0.8c0.1-0.2,0.3-0.3,0.5-0.3c0.2,0,0.4,0.1,0.5,0.3C158.1,46.5,158.2,46.8,158.2,47.2z M157,47.2
			c0,0.3,0,0.5,0.1,0.7c0.1,0.1,0.2,0.2,0.3,0.2c0.2,0,0.3-0.1,0.4-0.2c0.1-0.1,0.1-0.4,0.1-0.7s0-0.5-0.1-0.7
			c-0.1-0.1-0.2-0.2-0.4-0.2c-0.2,0-0.3,0.1-0.3,0.2C157.1,46.6,157,46.9,157,47.2z"/>
		<path d="M160.2,47.2c0,0.4-0.1,0.6-0.2,0.8c-0.1,0.2-0.3,0.3-0.5,0.3c-0.2,0-0.4-0.1-0.5-0.3c-0.1-0.2-0.2-0.5-0.2-0.8
			c0-0.4,0.1-0.6,0.2-0.8c0.1-0.2,0.3-0.3,0.5-0.3c0.2,0,0.4,0.1,0.5,0.3C160.2,46.5,160.2,46.8,160.2,47.2z M159,47.2
			c0,0.3,0,0.5,0.1,0.7c0.1,0.1,0.2,0.2,0.3,0.2c0.2,0,0.3-0.1,0.4-0.2c0.1-0.1,0.1-0.4,0.1-0.7s0-0.5-0.1-0.7
			c-0.1-0.1-0.2-0.2-0.4-0.2c-0.2,0-0.3,0.1-0.3,0.2C159.1,46.6,159,46.9,159,47.2z"/>
		<path d="M161.7,48.3h-0.2v-1.5c0-0.1,0-0.2,0-0.4c0,0,0,0-0.1,0.1s-0.1,0.1-0.3,0.3l-0.1-0.2l0.6-0.4h0.2V48.3z"/>
		<path d="M165.3,47.2c0,0.4-0.1,0.6-0.2,0.8c-0.1,0.2-0.3,0.3-0.5,0.3c-0.2,0-0.4-0.1-0.5-0.3c-0.1-0.2-0.2-0.5-0.2-0.8
			c0-0.4,0.1-0.6,0.2-0.8c0.1-0.2,0.3-0.3,0.5-0.3c0.2,0,0.4,0.1,0.5,0.3C165.3,46.5,165.3,46.8,165.3,47.2z M164.1,47.2
			c0,0.3,0,0.5,0.1,0.7c0.1,0.1,0.2,0.2,0.3,0.2c0.2,0,0.3-0.1,0.4-0.2c0.1-0.1,0.1-0.4,0.1-0.7s0-0.5-0.1-0.7
			c-0.1-0.1-0.2-0.2-0.4-0.2c-0.2,0-0.3,0.1-0.3,0.2C164.2,46.6,164.1,46.9,164.1,47.2z"/>
		<path d="M166.8,48.3h-0.2v-1.5c0-0.1,0-0.2,0-0.4c0,0,0,0-0.1,0.1s-0.1,0.1-0.3,0.3l-0.1-0.2l0.6-0.4h0.2V48.3z"/>
		<path d="M168.8,48.3h-0.2v-1.5c0-0.1,0-0.2,0-0.4c0,0,0,0-0.1,0.1s-0.1,0.1-0.3,0.3l-0.1-0.2l0.6-0.4h0.2V48.3z"/>
		<path d="M171.4,47.2c0,0.4-0.1,0.6-0.2,0.8c-0.1,0.2-0.3,0.3-0.5,0.3c-0.2,0-0.4-0.1-0.5-0.3c-0.1-0.2-0.2-0.5-0.2-0.8
			c0-0.4,0.1-0.6,0.2-0.8c0.1-0.2,0.3-0.3,0.5-0.3c0.2,0,0.4,0.1,0.5,0.3C171.3,46.5,171.4,46.8,171.4,47.2z M170.2,47.2
			c0,0.3,0,0.5,0.1,0.7c0.1,0.1,0.2,0.2,0.3,0.2c0.2,0,0.3-0.1,0.4-0.2c0.1-0.1,0.1-0.4,0.1-0.7s0-0.5-0.1-0.7
			c-0.1-0.1-0.2-0.2-0.4-0.2c-0.2,0-0.3,0.1-0.3,0.2C170.2,46.6,170.2,46.9,170.2,47.2z"/>
		<path d="M173.4,47.2c0,0.4-0.1,0.6-0.2,0.8c-0.1,0.2-0.3,0.3-0.5,0.3c-0.2,0-0.4-0.1-0.5-0.3c-0.1-0.2-0.2-0.5-0.2-0.8
			c0-0.4,0.1-0.6,0.2-0.8c0.1-0.2,0.3-0.3,0.5-0.3c0.2,0,0.4,0.1,0.5,0.3C173.3,46.5,173.4,46.8,173.4,47.2z M172.2,47.2
			c0,0.3,0,0.5,0.1,0.7c0.1,0.1,0.2,0.2,0.3,0.2c0.2,0,0.3-0.1,0.4-0.2c0.1-0.1,0.1-0.4,0.1-0.7s0-0.5-0.1-0.7
			c-0.1-0.1-0.2-0.2-0.4-0.2c-0.2,0-0.3,0.1-0.3,0.2C172.2,46.6,172.2,46.9,172.2,47.2z"/>
		<path d="M175.4,47.2c0,0.4-0.1,0.6-0.2,0.8c-0.1,0.2-0.3,0.3-0.5,0.3c-0.2,0-0.4-0.1-0.5-0.3c-0.1-0.2-0.2-0.5-0.2-0.8
			c0-0.4,0.1-0.6,0.2-0.8c0.1-0.2,0.3-0.3,0.5-0.3c0.2,0,0.4,0.1,0.5,0.3C175.3,46.5,175.4,46.8,175.4,47.2z M174.2,47.2
			c0,0.3,0,0.5,0.1,0.7c0.1,0.1,0.2,0.2,0.3,0.2c0.2,0,0.3-0.1,0.4-0.2c0.1-0.1,0.1-0.4,0.1-0.7s0-0.5-0.1-0.7
			c-0.1-0.1-0.2-0.2-0.4-0.2c-0.2,0-0.3,0.1-0.3,0.2C174.3,46.6,174.2,46.9,174.2,47.2z"/>
		<path d="M177.4,47.2c0,0.4-0.1,0.6-0.2,0.8c-0.1,0.2-0.3,0.3-0.5,0.3c-0.2,0-0.4-0.1-0.5-0.3c-0.1-0.2-0.2-0.5-0.2-0.8
			c0-0.4,0.1-0.6,0.2-0.8c0.1-0.2,0.3-0.3,0.5-0.3c0.2,0,0.4,0.1,0.5,0.3C177.3,46.5,177.4,46.8,177.4,47.2z M176.2,47.2
			c0,0.3,0,0.5,0.1,0.7c0.1,0.1,0.2,0.2,0.3,0.2c0.2,0,0.3-0.1,0.4-0.2c0.1-0.1,0.1-0.4,0.1-0.7s0-0.5-0.1-0.7
			c-0.1-0.1-0.2-0.2-0.4-0.2c-0.2,0-0.3,0.1-0.3,0.2C176.3,46.6,176.2,46.9,176.2,47.2z"/>
		<path d="M178.9,48.3h-0.2v-1.5c0-0.1,0-0.2,0-0.4c0,0,0,0-0.1,0.1s-0.1,0.1-0.3,0.3l-0.1-0.2l0.6-0.4h0.2V48.3z"/>
		<path d="M182.5,47.2c0,0.4-0.1,0.6-0.2,0.8c-0.1,0.2-0.3,0.3-0.5,0.3c-0.2,0-0.4-0.1-0.5-0.3c-0.1-0.2-0.2-0.5-0.2-0.8
			c0-0.4,0.1-0.6,0.2-0.8c0.1-0.2,0.3-0.3,0.5-0.3c0.2,0,0.4,0.1,0.5,0.3C182.5,46.5,182.5,46.8,182.5,47.2z M181.3,47.2
			c0,0.3,0,0.5,0.1,0.7c0.1,0.1,0.2,0.2,0.3,0.2c0.2,0,0.3-0.1,0.4-0.2c0.1-0.1,0.1-0.4,0.1-0.7s0-0.5-0.1-0.7
			c-0.1-0.1-0.2-0.2-0.4-0.2c-0.2,0-0.3,0.1-0.3,0.2C181.4,46.6,181.3,46.9,181.3,47.2z"/>
		<path d="M184,48.3h-0.2v-1.5c0-0.1,0-0.2,0-0.4c0,0,0,0-0.1,0.1s-0.1,0.1-0.3,0.3l-0.1-0.2l0.6-0.4h0.2V48.3z"/>
		<path d="M186,48.3h-0.2v-1.5c0-0.1,0-0.2,0-0.4c0,0,0,0-0.1,0.1s-0.1,0.1-0.3,0.3l-0.1-0.2l0.6-0.4h0.2V48.3z"/>
		<path d="M188.6,47.2c0,0.4-0.1,0.6-0.2,0.8c-0.1,0.2-0.3,0.3-0.5,0.3c-0.2,0-0.4-0.1-0.5-0.3c-0.1-0.2-0.2-0.5-0.2-0.8
			c0-0.4,0.1-0.6,0.2-0.8c0.1-0.2,0.3-0.3,0.5-0.3c0.2,0,0.4,0.1,0.5,0.3C188.5,46.5,188.6,46.8,188.6,47.2z M187.4,47.2
			c0,0.3,0,0.5,0.1,0.7c0.1,0.1,0.2,0.2,0.3,0.2c0.2,0,0.3-0.1,0.4-0.2c0.1-0.1,0.1-0.4,0.1-0.7s0-0.5-0.1-0.7
			c-0.1-0.1-0.2-0.2-0.4-0.2c-0.2,0-0.3,0.1-0.3,0.2C187.4,46.6,187.4,46.9,187.4,47.2z"/>
		<path d="M190.1,48.3h-0.2v-1.5c0-0.1,0-0.2,0-0.4c0,0,0,0-0.1,0.1s-0.1,0.1-0.3,0.3l-0.1-0.2l0.6-0.4h0.2V48.3z"/>
		<path d="M192.1,48.3h-0.2v-1.5c0-0.1,0-0.2,0-0.4c0,0,0,0-0.1,0.1s-0.1,0.1-0.3,0.3l-0.1-0.2l0.6-0.4h0.2V48.3z"/>
		<path d="M194.6,47.2c0,0.4-0.1,0.6-0.2,0.8c-0.1,0.2-0.3,0.3-0.5,0.3c-0.2,0-0.4-0.1-0.5-0.3c-0.1-0.2-0.2-0.5-0.2-0.8
			c0-0.4,0.1-0.6,0.2-0.8c0.1-0.2,0.3-0.3,0.5-0.3c0.2,0,0.4,0.1,0.5,0.3C194.5,46.5,194.6,46.8,194.6,47.2z M193.4,47.2
			c0,0.3,0,0.5,0.1,0.7c0.1,0.1,0.2,0.2,0.3,0.2c0.2,0,0.3-0.1,0.4-0.2c0.1-0.1,0.1-0.4,0.1-0.7s0-0.5-0.1-0.7
			c-0.1-0.1-0.2-0.2-0.4-0.2c-0.2,0-0.3,0.1-0.3,0.2C193.5,46.6,193.4,46.9,193.4,47.2z"/>
		<path d="M196.1,48.3h-0.2v-1.5c0-0.1,0-0.2,0-0.4c0,0,0,0-0.1,0.1s-0.1,0.1-0.3,0.3l-0.1-0.2l0.6-0.4h0.2V48.3z"/>
	</g>
	<g id="robert">
		<path d="M204.8,50.8c-0.4,0-0.6-0.1-0.8-0.2c-0.2-0.1-0.3-0.3-0.3-0.5c0-0.2,0.1-0.4,0.3-0.5c0.2-0.1,0.5-0.2,0.8-0.2
			c0.4,0,0.6,0.1,0.8,0.2c0.2,0.1,0.3,0.3,0.3,0.5c0,0.2-0.1,0.4-0.3,0.5C205.5,50.8,205.2,50.8,204.8,50.8z M204.8,49.6
			c-0.3,0-0.5,0-0.7,0.1c-0.1,0.1-0.2,0.2-0.2,0.3c0,0.2,0.1,0.3,0.2,0.4c0.1,0.1,0.4,0.1,0.7,0.1c0.3,0,0.5,0,0.7-0.1
			c0.1-0.1,0.2-0.2,0.2-0.4c0-0.2-0.1-0.3-0.2-0.3C205.4,49.7,205.1,49.6,204.8,49.6z"/>
		<path d="M203.8,52.3v-0.2h1.5c0.1,0,0.2,0,0.4,0c0,0,0,0-0.1-0.1s-0.1-0.1-0.3-0.3l0.2-0.1l0.4,0.6v0.2H203.8z"/>
		<path d="M204.8,54.8c-0.4,0-0.6-0.1-0.8-0.2c-0.2-0.1-0.3-0.3-0.3-0.5c0-0.2,0.1-0.4,0.3-0.5c0.2-0.1,0.5-0.2,0.8-0.2
			c0.4,0,0.6,0.1,0.8,0.2c0.2,0.1,0.3,0.3,0.3,0.5c0,0.2-0.1,0.4-0.3,0.5C205.5,54.8,205.2,54.8,204.8,54.8z M204.8,53.7
			c-0.3,0-0.5,0-0.7,0.1c-0.1,0.1-0.2,0.2-0.2,0.3c0,0.2,0.1,0.3,0.2,0.4c0.1,0.1,0.4,0.1,0.7,0.1c0.3,0,0.5,0,0.7-0.1
			c0.1-0.1,0.2-0.2,0.2-0.4c0-0.2-0.1-0.3-0.2-0.3C205.4,53.7,205.1,53.7,204.8,53.7z"/>
		<path d="M203.8,56.3v-0.2h1.5c0.1,0,0.2,0,0.4,0c0,0,0,0-0.1-0.1s-0.1-0.1-0.3-0.3l0.2-0.1l0.4,0.6v0.2H203.8z"/>
		<path d="M204.8,58.9c-0.4,0-0.6-0.1-0.8-0.2c-0.2-0.1-0.3-0.3-0.3-0.5c0-0.2,0.1-0.4,0.3-0.5c0.2-0.1,0.5-0.2,0.8-0.2
			c0.4,0,0.6,0.1,0.8,0.2c0.2,0.1,0.3,0.3,0.3,0.5c0,0.2-0.1,0.4-0.3,0.5C205.5,58.8,205.2,58.9,204.8,58.9z M204.8,57.7
			c-0.3,0-0.5,0-0.7,0.1c-0.1,0.1-0.2,0.2-0.2,0.3c0,0.2,0.1,0.3,0.2,0.4c0.1,0.1,0.4,0.1,0.7,0.1c0.3,0,0.5,0,0.7-0.1
			c0.1-0.1,0.2-0.2,0.2-0.4c0-0.2-0.1-0.3-0.2-0.3C205.4,57.7,205.1,57.7,204.8,57.7z"/>
		<path d="M204.8,60.9c-0.4,0-0.6-0.1-0.8-0.2c-0.2-0.1-0.3-0.3-0.3-0.5c0-0.2,0.1-0.4,0.3-0.5c0.2-0.1,0.5-0.2,0.8-0.2
			c0.4,0,0.6,0.1,0.8,0.2c0.2,0.1,0.3,0.3,0.3,0.5c0,0.2-0.1,0.4-0.3,0.5C205.5,60.8,205.2,60.9,204.8,60.9z M204.8,59.7
			c-0.3,0-0.5,0-0.7,0.1c-0.1,0.1-0.2,0.2-0.2,0.3c0,0.2,0.1,0.3,0.2,0.4c0.1,0.1,0.4,0.1,0.7,0.1c0.3,0,0.5,0,0.7-0.1
			c0.1-0.1,0.2-0.2,0.2-0.4c0-0.2-0.1-0.3-0.2-0.3C205.4,59.8,205.1,59.7,204.8,59.7z"/>
		<path d="M203.8,62.4v-0.2h1.5c0.1,0,0.2,0,0.4,0c0,0,0,0-0.1-0.1s-0.1-0.1-0.3-0.3l0.2-0.1l0.4,0.6v0.2H203.8z"/>
		<path d="M204.8,64.9c-0.4,0-0.6-0.1-0.8-0.2c-0.2-0.1-0.3-0.3-0.3-0.5c0-0.2,0.1-0.4,0.3-0.5c0.2-0.1,0.5-0.2,0.8-0.2
			c0.4,0,0.6,0.1,0.8,0.2c0.2,0.1,0.3,0.3,0.3,0.5c0,0.2-0.1,0.4-0.3,0.5C205.5,64.9,205.2,64.9,204.8,64.9z M204.8,63.8
			c-0.3,0-0.5,0-0.7,0.1c-0.1,0.1-0.2,0.2-0.2,0.3c0,0.2,0.1,0.3,0.2,0.4c0.1,0.1,0.4,0.1,0.7,0.1c0.3,0,0.5,0,0.7-0.1
			c0.1-0.1,0.2-0.2,0.2-0.4c0-0.2-0.1-0.3-0.2-0.3C205.4,63.8,205.1,63.8,204.8,63.8z"/>
		<path d="M204.8,68c-0.4,0-0.6-0.1-0.8-0.2c-0.2-0.1-0.3-0.3-0.3-0.5c0-0.2,0.1-0.4,0.3-0.5c0.2-0.1,0.5-0.2,0.8-0.2
			c0.4,0,0.6,0.1,0.8,0.2c0.2,0.1,0.3,0.3,0.3,0.5c0,0.2-0.1,0.4-0.3,0.5C205.5,68,205.2,68,204.8,68z M204.8,66.8
			c-0.3,0-0.5,0-0.7,0.1c-0.1,0.1-0.2,0.2-0.2,0.3c0,0.2,0.1,0.3,0.2,0.4c0.1,0.1,0.4,0.1,0.7,0.1c0.3,0,0.5,0,0.7-0.1
			c0.1-0.1,0.2-0.2,0.2-0.4c0-0.2-0.1-0.3-0.2-0.3C205.4,66.9,205.1,66.8,204.8,66.8z"/>
		<path d="M203.8,69.5v-0.2h1.5c0.1,0,0.2,0,0.4,0c0,0,0,0-0.1-0.1s-0.1-0.1-0.3-0.3l0.2-0.1l0.4,0.6v0.2H203.8z"/>
		<path d="M203.8,71.5v-0.2h1.5c0.1,0,0.2,0,0.4,0c0,0,0,0-0.1-0.1s-0.1-0.1-0.3-0.3l0.2-0.1l0.4,0.6v0.2H203.8z"/>
		<path d="M204.8,74.1c-0.4,0-0.6-0.1-0.8-0.2c-0.2-0.1-0.3-0.3-0.3-0.5c0-0.2,0.1-0.4,0.3-0.5c0.2-0.1,0.5-0.2,0.8-0.2
			c0.4,0,0.6,0.1,0.8,0.2c0.2,0.1,0.3,0.3,0.3,0.5c0,0.2-0.1,0.4-0.3,0.5C205.5,74,205.2,74.1,204.8,74.1z M204.8,72.9
			c-0.3,0-0.5,0-0.7,0.1c-0.1,0.1-0.2,0.2-0.2,0.3c0,0.2,0.1,0.3,0.2,0.4c0.1,0.1,0.4,0.1,0.7,0.1c0.3,0,0.5,0,0.7-0.1
			c0.1-0.1,0.2-0.2,0.2-0.4c0-0.2-0.1-0.3-0.2-0.3C205.4,72.9,205.1,72.9,204.8,72.9z"/>
		<path d="M203.8,75.6v-0.2h1.5c0.1,0,0.2,0,0.4,0c0,0,0,0-0.1-0.1s-0.1-0.1-0.3-0.3l0.2-0.1l0.4,0.6v0.2H203.8z"/>
		<path d="M203.8,77.6v-0.2h1.5c0.1,0,0.2,0,0.4,0c0,0,0,0-0.1-0.1s-0.1-0.1-0.3-0.3l0.2-0.1l0.4,0.6v0.2H203.8z"/>
		<path d="M203.8,79.6v-0.2h1.5c0.1,0,0.2,0,0.4,0c0,0,0,0-0.1-0.1s-0.1-0.1-0.3-0.3l0.2-0.1l0.4,0.6v0.2H203.8z"/>
		<path d="M203.8,81.6v-0.2h1.5c0.1,0,0.2,0,0.4,0c0,0,0,0-0.1-0.1s-0.1-0.1-0.3-0.3l0.2-0.1l0.4,0.6v0.2H203.8z"/>
		<path d="M203.2,84.2c-0.3-0.3-0.4-0.5-0.4-0.7c0-0.2,0-0.4,0.2-0.6c0.2-0.2,0.4-0.2,0.6-0.2c0.2,0.1,0.5,0.2,0.7,0.5
			c0.3,0.3,0.4,0.5,0.4,0.7c0,0.2,0,0.4-0.2,0.6c-0.2,0.2-0.4,0.2-0.6,0.2C203.7,84.7,203.5,84.5,203.2,84.2z M204.1,83.4
			c-0.2-0.2-0.4-0.4-0.6-0.4c-0.2-0.1-0.3,0-0.4,0.1c-0.1,0.1-0.2,0.2-0.1,0.4c0,0.2,0.2,0.3,0.4,0.6c0.2,0.2,0.4,0.4,0.5,0.4
			c0.2,0.1,0.3,0,0.4-0.1c0.1-0.1,0.2-0.2,0.1-0.4C204.4,83.8,204.3,83.7,204.1,83.4z"/>
		<path d="M201.4,84.5l0.2-0.2l1.1,1.1c0.1,0.1,0.2,0.2,0.2,0.3c0,0,0-0.1,0-0.1c0,0,0-0.2,0.1-0.4l0.2,0l-0.1,0.7l-0.1,0.1
			L201.4,84.5z"/>
		<path d="M199.9,85.9l0.2-0.2l1.1,1.1c0.1,0.1,0.2,0.2,0.2,0.3c0,0,0-0.1,0-0.1c0,0,0-0.2,0.1-0.4l0.2,0l-0.1,0.7l-0.1,0.1
			L199.9,85.9z"/>
		<path d="M198.9,88.4c-0.3-0.3-0.4-0.5-0.4-0.7c0-0.2,0-0.4,0.2-0.6c0.2-0.2,0.4-0.2,0.6-0.2c0.2,0.1,0.5,0.2,0.7,0.5
			c0.3,0.3,0.4,0.5,0.4,0.7c0,0.2,0,0.4-0.2,0.6c-0.2,0.2-0.4,0.2-0.6,0.2C199.3,88.8,199.1,88.7,198.9,88.4z M199.7,87.6
			c-0.2-0.2-0.4-0.4-0.6-0.4c-0.2-0.1-0.3,0-0.4,0.1c-0.1,0.1-0.2,0.2-0.1,0.4c0,0.2,0.2,0.3,0.4,0.6c0.2,0.2,0.4,0.4,0.5,0.4
			c0.2,0.1,0.3,0,0.4-0.1c0.1-0.1,0.2-0.2,0.1-0.4C200,88,199.9,87.8,199.7,87.6z"/>
		<path d="M197.4,89.8c-0.3-0.3-0.4-0.5-0.4-0.7c0-0.2,0-0.4,0.2-0.6c0.2-0.2,0.4-0.2,0.6-0.2c0.2,0.1,0.5,0.2,0.7,0.5
			c0.3,0.3,0.4,0.5,0.4,0.7c0,0.2,0,0.4-0.2,0.6c-0.2,0.2-0.4,0.2-0.6,0.2C197.9,90.2,197.7,90.1,197.4,89.8z M198.3,89
			c-0.2-0.2-0.4-0.4-0.6-0.4c-0.2-0.1-0.3,0-0.4,0.1c-0.1,0.1-0.2,0.2-0.1,0.4c0,0.2,0.2,0.3,0.4,0.6c0.2,0.2,0.4,0.4,0.5,0.4
			c0.2,0.1,0.3,0,0.4-0.1c0.1-0.1,0.2-0.2,0.1-0.4C198.6,89.4,198.5,89.2,198.3,89z"/>
		<path d="M193.9,90.4c0-0.4,0.1-0.6,0.2-0.8c0.1-0.2,0.3-0.3,0.5-0.3c0.2,0,0.4,0.1,0.5,0.3c0.1,0.2,0.2,0.5,0.2,0.8
			c0,0.4-0.1,0.6-0.2,0.8c-0.1,0.2-0.3,0.3-0.5,0.3c-0.2,0-0.4-0.1-0.5-0.3C194,91,193.9,90.8,193.9,90.4z M195.1,90.4
			c0-0.3,0-0.5-0.1-0.7c-0.1-0.1-0.2-0.2-0.3-0.2c-0.2,0-0.3,0.1-0.4,0.2c-0.1,0.1-0.1,0.4-0.1,0.7c0,0.3,0,0.5,0.1,0.7
			c0.1,0.1,0.2,0.2,0.4,0.2c0.2,0,0.3-0.1,0.3-0.2C195.1,90.9,195.1,90.7,195.1,90.4z"/>
		<path d="M192.4,89.3h0.2v1.5c0,0.1,0,0.2,0,0.4c0,0,0,0,0.1-0.1c0,0,0.1-0.1,0.3-0.3l0.1,0.2l-0.6,0.4h-0.2V89.3z"/>
		<path d="M189.9,90.4c0-0.4,0.1-0.6,0.2-0.8c0.1-0.2,0.3-0.3,0.5-0.3c0.2,0,0.4,0.1,0.5,0.3c0.1,0.2,0.2,0.5,0.2,0.8
			c0,0.4-0.1,0.6-0.2,0.8c-0.1,0.2-0.3,0.3-0.5,0.3c-0.2,0-0.4-0.1-0.5-0.3C190,91,189.9,90.8,189.9,90.4z M191.1,90.4
			c0-0.3,0-0.5-0.1-0.7c-0.1-0.1-0.2-0.2-0.3-0.2c-0.2,0-0.3,0.1-0.4,0.2c-0.1,0.1-0.1,0.4-0.1,0.7c0,0.3,0,0.5,0.1,0.7
			c0.1,0.1,0.2,0.2,0.4,0.2c0.2,0,0.3-0.1,0.3-0.2C191,90.9,191.1,90.7,191.1,90.4z"/>
		<path d="M186.8,90.4c0-0.4,0.1-0.6,0.2-0.8c0.1-0.2,0.3-0.3,0.5-0.3c0.2,0,0.4,0.1,0.5,0.3c0.1,0.2,0.2,0.5,0.2,0.8
			c0,0.4-0.1,0.6-0.2,0.8c-0.1,0.2-0.3,0.3-0.5,0.3c-0.2,0-0.4-0.1-0.5-0.3C186.9,91,186.8,90.8,186.8,90.4z M188,90.4
			c0-0.3,0-0.5-0.1-0.7c-0.1-0.1-0.2-0.2-0.3-0.2c-0.2,0-0.3,0.1-0.4,0.2c-0.1,0.1-0.1,0.4-0.1,0.7c0,0.3,0,0.5,0.1,0.7
			c0.1,0.1,0.2,0.2,0.4,0.2c0.2,0,0.3-0.1,0.3-0.2C187.9,90.9,188,90.7,188,90.4z"/>
		<path d="M185.3,89.3h0.2v1.5c0,0.1,0,0.2,0,0.4c0,0,0,0,0.1-0.1c0,0,0.1-0.1,0.3-0.3l0.1,0.2l-0.6,0.4h-0.2V89.3z"/>
		<path d="M183.3,89.3h0.2v1.5c0,0.1,0,0.2,0,0.4c0,0,0,0,0.1-0.1c0,0,0.1-0.1,0.3-0.3l0.1,0.2l-0.6,0.4h-0.2V89.3z"/>
		<path d="M180.8,90.4c0-0.4,0.1-0.6,0.2-0.8c0.1-0.2,0.3-0.3,0.5-0.3c0.2,0,0.4,0.1,0.5,0.3c0.1,0.2,0.2,0.5,0.2,0.8
			c0,0.4-0.1,0.6-0.2,0.8c-0.1,0.2-0.3,0.3-0.5,0.3c-0.2,0-0.4-0.1-0.5-0.3C180.8,91,180.8,90.8,180.8,90.4z M181.9,90.4
			c0-0.3,0-0.5-0.1-0.7c-0.1-0.1-0.2-0.2-0.3-0.2c-0.2,0-0.3,0.1-0.4,0.2c-0.1,0.1-0.1,0.4-0.1,0.7c0,0.3,0,0.5,0.1,0.7
			c0.1,0.1,0.2,0.2,0.4,0.2c0.2,0,0.3-0.1,0.3-0.2C181.9,90.9,181.9,90.7,181.9,90.4z"/>
		<path d="M178.7,90.4c0-0.4,0.1-0.6,0.2-0.8c0.1-0.2,0.3-0.3,0.5-0.3c0.2,0,0.4,0.1,0.5,0.3c0.1,0.2,0.2,0.5,0.2,0.8
			c0,0.4-0.1,0.6-0.2,0.8c-0.1,0.2-0.3,0.3-0.5,0.3c-0.2,0-0.4-0.1-0.5-0.3C178.8,91,178.7,90.8,178.7,90.4z M179.9,90.4
			c0-0.3,0-0.5-0.1-0.7c-0.1-0.1-0.2-0.2-0.3-0.2c-0.2,0-0.3,0.1-0.4,0.2c-0.1,0.1-0.1,0.4-0.1,0.7c0,0.3,0,0.5,0.1,0.7
			c0.1,0.1,0.2,0.2,0.4,0.2c0.2,0,0.3-0.1,0.3-0.2C179.9,90.9,179.9,90.7,179.9,90.4z"/>
		<path d="M177.3,89.3h0.2v1.5c0,0.1,0,0.2,0,0.4c0,0,0,0,0.1-0.1c0,0,0.1-0.1,0.3-0.3L178,91l-0.6,0.4h-0.2V89.3z"/>
		<path d="M174.7,90.4c0-0.4,0.1-0.6,0.2-0.8c0.1-0.2,0.3-0.3,0.5-0.3c0.2,0,0.4,0.1,0.5,0.3c0.1,0.2,0.2,0.5,0.2,0.8
			c0,0.4-0.1,0.6-0.2,0.8c-0.1,0.2-0.3,0.3-0.5,0.3c-0.2,0-0.4-0.1-0.5-0.3C174.8,91,174.7,90.8,174.7,90.4z M175.9,90.4
			c0-0.3,0-0.5-0.1-0.7c-0.1-0.1-0.2-0.2-0.3-0.2c-0.2,0-0.3,0.1-0.4,0.2c-0.1,0.1-0.1,0.4-0.1,0.7c0,0.3,0,0.5,0.1,0.7
			c0.1,0.1,0.2,0.2,0.4,0.2c0.2,0,0.3-0.1,0.3-0.2C175.8,90.9,175.9,90.7,175.9,90.4z"/>
		<path d="M173.2,89.3h0.2v1.5c0,0.1,0,0.2,0,0.4c0,0,0,0,0.1-0.1c0,0,0.1-0.1,0.3-0.3L174,91l-0.6,0.4h-0.2V89.3z"/>
		<path d="M169.6,90.4c0-0.4,0.1-0.6,0.2-0.8c0.1-0.2,0.3-0.3,0.5-0.3c0.2,0,0.4,0.1,0.5,0.3c0.1,0.2,0.2,0.5,0.2,0.8
			c0,0.4-0.1,0.6-0.2,0.8c-0.1,0.2-0.3,0.3-0.5,0.3c-0.2,0-0.4-0.1-0.5-0.3C169.7,91,169.6,90.8,169.6,90.4z M170.8,90.4
			c0-0.3,0-0.5-0.1-0.7c-0.1-0.1-0.2-0.2-0.3-0.2c-0.2,0-0.3,0.1-0.4,0.2c-0.1,0.1-0.1,0.4-0.1,0.7c0,0.3,0,0.5,0.1,0.7
			c0.1,0.1,0.2,0.2,0.4,0.2c0.2,0,0.3-0.1,0.3-0.2C170.7,90.9,170.8,90.7,170.8,90.4z"/>
		<path d="M168.1,89.3h0.2v1.5c0,0.1,0,0.2,0,0.4c0,0,0,0,0.1-0.1c0,0,0.1-0.1,0.3-0.3l0.1,0.2l-0.6,0.4h-0.2V89.3z"/>
		<path d="M166.1,89.3h0.2v1.5c0,0.1,0,0.2,0,0.4c0,0,0,0,0.1-0.1c0,0,0.1-0.1,0.3-0.3l0.1,0.2l-0.6,0.4h-0.2V89.3z"/>
		<path d="M164.1,89.3h0.2v1.5c0,0.1,0,0.2,0,0.4c0,0,0,0,0.1-0.1c0,0,0.1-0.1,0.3-0.3l0.1,0.2l-0.6,0.4h-0.2V89.3z"/>
		<path d="M161.5,90.4c0-0.4,0.1-0.6,0.2-0.8c0.1-0.2,0.3-0.3,0.5-0.3c0.2,0,0.4,0.1,0.5,0.3c0.1,0.2,0.2,0.5,0.2,0.8
			c0,0.4-0.1,0.6-0.2,0.8c-0.1,0.2-0.3,0.3-0.5,0.3c-0.2,0-0.4-0.1-0.5-0.3C161.6,91,161.5,90.8,161.5,90.4z M162.7,90.4
			c0-0.3,0-0.5-0.1-0.7c-0.1-0.1-0.2-0.2-0.3-0.2c-0.2,0-0.3,0.1-0.4,0.2c-0.1,0.1-0.1,0.4-0.1,0.7c0,0.3,0,0.5,0.1,0.7
			c0.1,0.1,0.2,0.2,0.4,0.2c0.2,0,0.3-0.1,0.3-0.2C162.7,90.9,162.7,90.7,162.7,90.4z"/>
		<path d="M159.5,90.4c0-0.4,0.1-0.6,0.2-0.8c0.1-0.2,0.3-0.3,0.5-0.3c0.2,0,0.4,0.1,0.5,0.3c0.1,0.2,0.2,0.5,0.2,0.8
			c0,0.4-0.1,0.6-0.2,0.8c-0.1,0.2-0.3,0.3-0.5,0.3c-0.2,0-0.4-0.1-0.5-0.3C159.6,91,159.5,90.8,159.5,90.4z M160.7,90.4
			c0-0.3,0-0.5-0.1-0.7c-0.1-0.1-0.2-0.2-0.3-0.2c-0.2,0-0.3,0.1-0.4,0.2c-0.1,0.1-0.1,0.4-0.1,0.7c0,0.3,0,0.5,0.1,0.7
			c0.1,0.1,0.2,0.2,0.4,0.2c0.2,0,0.3-0.1,0.3-0.2C160.7,90.9,160.7,90.7,160.7,90.4z"/>
		<path d="M158,89.3h0.2v1.5c0,0.1,0,0.2,0,0.4c0,0,0,0,0.1-0.1c0,0,0.1-0.1,0.3-0.3l0.1,0.2l-0.6,0.4H158V89.3z"/>
		<path d="M155.5,90.4c0-0.4,0.1-0.6,0.2-0.8c0.1-0.2,0.3-0.3,0.5-0.3c0.2,0,0.4,0.1,0.5,0.3c0.1,0.2,0.2,0.5,0.2,0.8
			c0,0.4-0.1,0.6-0.2,0.8c-0.1,0.2-0.3,0.3-0.5,0.3c-0.2,0-0.4-0.1-0.5-0.3C155.6,91,155.5,90.8,155.5,90.4z M156.7,90.4
			c0-0.3,0-0.5-0.1-0.7c-0.1-0.1-0.2-0.2-0.3-0.2c-0.2,0-0.3,0.1-0.4,0.2c-0.1,0.1-0.1,0.4-0.1,0.7c0,0.3,0,0.5,0.1,0.7
			c0.1,0.1,0.2,0.2,0.4,0.2c0.2,0,0.3-0.1,0.3-0.2C156.6,90.9,156.7,90.7,156.7,90.4z"/>
		<path d="M152.4,90.4c0-0.4,0.1-0.6,0.2-0.8c0.1-0.2,0.3-0.3,0.5-0.3c0.2,0,0.4,0.1,0.5,0.3c0.1,0.2,0.2,0.5,0.2,0.8
			c0,0.4-0.1,0.6-0.2,0.8c-0.1,0.2-0.3,0.3-0.5,0.3c-0.2,0-0.4-0.1-0.5-0.3C152.5,91,152.4,90.8,152.4,90.4z M153.6,90.4
			c0-0.3,0-0.5-0.1-0.7c-0.1-0.1-0.2-0.2-0.3-0.2c-0.2,0-0.3,0.1-0.4,0.2c-0.1,0.1-0.1,0.4-0.1,0.7c0,0.3,0,0.5,0.1,0.7
			c0.1,0.1,0.2,0.2,0.4,0.2c0.2,0,0.3-0.1,0.3-0.2C153.5,90.9,153.6,90.7,153.6,90.4z"/>
		<path d="M150.9,89.3h0.2v1.5c0,0.1,0,0.2,0,0.4c0,0,0,0,0.1-0.1c0,0,0.1-0.1,0.3-0.3l0.1,0.2l-0.6,0.4h-0.2V89.3z"/>
		<path d="M148.9,89.3h0.2v1.5c0,0.1,0,0.2,0,0.4c0,0,0,0,0.1-0.1c0,0,0.1-0.1,0.3-0.3l0.1,0.2l-0.6,0.4h-0.2V89.3z"/>
		<path d="M146.9,89.3h0.2v1.5c0,0.1,0,0.2,0,0.4c0,0,0,0,0.1-0.1c0,0,0.1-0.1,0.3-0.3l0.1,0.2l-0.6,0.4h-0.2V89.3z"/>
		<path d="M144.3,90.4c0-0.4,0.1-0.6,0.2-0.8c0.1-0.2,0.3-0.3,0.5-0.3c0.2,0,0.4,0.1,0.5,0.3c0.1,0.2,0.2,0.5,0.2,0.8
			c0,0.4-0.1,0.6-0.2,0.8c-0.1,0.2-0.3,0.3-0.5,0.3c-0.2,0-0.4-0.1-0.5-0.3C144.4,91,144.3,90.8,144.3,90.4z M145.5,90.4
			c0-0.3,0-0.5-0.1-0.7c-0.1-0.1-0.2-0.2-0.3-0.2c-0.2,0-0.3,0.1-0.4,0.2c-0.1,0.1-0.1,0.4-0.1,0.7c0,0.3,0,0.5,0.1,0.7
			c0.1,0.1,0.2,0.2,0.4,0.2c0.2,0,0.3-0.1,0.3-0.2C145.5,90.9,145.5,90.7,145.5,90.4z"/>
		<path d="M142.8,89.3h0.2v1.5c0,0.1,0,0.2,0,0.4c0,0,0,0,0.1-0.1c0,0,0.1-0.1,0.3-0.3l0.1,0.2l-0.6,0.4h-0.2V89.3z"/>
		<path d="M140.3,90.4c0-0.4,0.1-0.6,0.2-0.8c0.1-0.2,0.3-0.3,0.5-0.3c0.2,0,0.4,0.1,0.5,0.3c0.1,0.2,0.2,0.5,0.2,0.8
			c0,0.4-0.1,0.6-0.2,0.8c-0.1,0.2-0.3,0.3-0.5,0.3c-0.2,0-0.4-0.1-0.5-0.3C140.4,91,140.3,90.8,140.3,90.4z M141.5,90.4
			c0-0.3,0-0.5-0.1-0.7c-0.1-0.1-0.2-0.2-0.3-0.2c-0.2,0-0.3,0.1-0.4,0.2c-0.1,0.1-0.1,0.4-0.1,0.7c0,0.3,0,0.5,0.1,0.7
			c0.1,0.1,0.2,0.2,0.4,0.2c0.2,0,0.3-0.1,0.3-0.2C141.4,90.9,141.5,90.7,141.5,90.4z"/>
		<path d="M138.3,90.4c0-0.4,0.1-0.6,0.2-0.8c0.1-0.2,0.3-0.3,0.5-0.3c0.2,0,0.4,0.1,0.5,0.3c0.1,0.2,0.2,0.5,0.2,0.8
			c0,0.4-0.1,0.6-0.2,0.8c-0.1,0.2-0.3,0.3-0.5,0.3c-0.2,0-0.4-0.1-0.5-0.3C138.4,91,138.3,90.8,138.3,90.4z M139.5,90.4
			c0-0.3,0-0.5-0.1-0.7c-0.1-0.1-0.2-0.2-0.3-0.2c-0.2,0-0.3,0.1-0.4,0.2c-0.1,0.1-0.1,0.4-0.1,0.7c0,0.3,0,0.5,0.1,0.7
			c0.1,0.1,0.2,0.2,0.4,0.2c0.2,0,0.3-0.1,0.3-0.2C139.4,90.9,139.5,90.7,139.5,90.4z"/>
	</g>
	<g id="funk">
		<path d="M132.3,90.3c0-0.4,0.1-0.6,0.2-0.8c0.1-0.2,0.3-0.3,0.5-0.3c0.2,0,0.4,0.1,0.5,0.3c0.1,0.2,0.2,0.5,0.2,0.8
			c0,0.4-0.1,0.6-0.2,0.8s-0.3,0.3-0.5,0.3c-0.2,0-0.4-0.1-0.5-0.3C132.3,90.9,132.3,90.7,132.3,90.3z M133.5,90.3
			c0-0.3,0-0.5-0.1-0.7c-0.1-0.1-0.2-0.2-0.3-0.2c-0.2,0-0.3,0.1-0.4,0.2c-0.1,0.1-0.1,0.4-0.1,0.7c0,0.3,0,0.5,0.1,0.7
			c0.1,0.1,0.2,0.2,0.4,0.2c0.2,0,0.3-0.1,0.3-0.2C133.4,90.9,133.5,90.6,133.5,90.3z"/>
		<path d="M130.8,89.2h0.2v1.5c0,0.1,0,0.2,0,0.4c0,0,0,0,0.1-0.1s0.1-0.1,0.3-0.3l0.1,0.2l-0.6,0.4h-0.2V89.2z"/>
		<path d="M128.3,90.3c0-0.4,0.1-0.6,0.2-0.8s0.3-0.3,0.5-0.3c0.2,0,0.4,0.1,0.5,0.3c0.1,0.2,0.2,0.5,0.2,0.8c0,0.4-0.1,0.6-0.2,0.8
			c-0.1,0.2-0.3,0.3-0.5,0.3c-0.2,0-0.4-0.1-0.5-0.3S128.3,90.7,128.3,90.3z M129.4,90.3c0-0.3,0-0.5-0.1-0.7
			c-0.1-0.1-0.2-0.2-0.3-0.2c-0.2,0-0.3,0.1-0.4,0.2c-0.1,0.1-0.1,0.4-0.1,0.7c0,0.3,0,0.5,0.1,0.7c0.1,0.1,0.2,0.2,0.4,0.2
			c0.2,0,0.3-0.1,0.3-0.2C129.4,90.9,129.4,90.6,129.4,90.3z"/>
		<path d="M126.2,90.3c0-0.4,0.1-0.6,0.2-0.8c0.1-0.2,0.3-0.3,0.5-0.3c0.2,0,0.4,0.1,0.5,0.3c0.1,0.2,0.2,0.5,0.2,0.8
			c0,0.4-0.1,0.6-0.2,0.8s-0.3,0.3-0.5,0.3c-0.2,0-0.4-0.1-0.5-0.3C126.3,90.9,126.2,90.7,126.2,90.3z M127.4,90.3
			c0-0.3,0-0.5-0.1-0.7c-0.1-0.1-0.2-0.2-0.4-0.2c-0.2,0-0.3,0.1-0.4,0.2c-0.1,0.1-0.1,0.4-0.1,0.7c0,0.3,0,0.5,0.1,0.7
			c0.1,0.1,0.2,0.2,0.4,0.2c0.2,0,0.3-0.1,0.4-0.2C127.4,90.9,127.4,90.6,127.4,90.3z"/>
		<path d="M124.2,90.3c0-0.4,0.1-0.6,0.2-0.8s0.3-0.3,0.5-0.3c0.2,0,0.4,0.1,0.5,0.3c0.1,0.2,0.2,0.5,0.2,0.8c0,0.4-0.1,0.6-0.2,0.8
			s-0.3,0.3-0.5,0.3c-0.2,0-0.4-0.1-0.5-0.3S124.2,90.7,124.2,90.3z M125.4,90.3c0-0.3,0-0.5-0.1-0.7c-0.1-0.1-0.2-0.2-0.4-0.2
			c-0.2,0-0.3,0.1-0.4,0.2c-0.1,0.1-0.1,0.4-0.1,0.7c0,0.3,0,0.5,0.1,0.7c0.1,0.1,0.2,0.2,0.4,0.2c0.2,0,0.3-0.1,0.4-0.2
			C125.4,90.9,125.4,90.6,125.4,90.3z"/>
		<path d="M122.7,89.2h0.2v1.5c0,0.1,0,0.2,0,0.4c0,0,0,0,0.1-0.1s0.1-0.1,0.3-0.3l0.1,0.2l-0.6,0.4h-0.2V89.2z"/>
		<path d="M120.7,89.2h0.2v1.5c0,0.1,0,0.2,0,0.4c0,0,0,0,0.1-0.1s0.1-0.1,0.3-0.3l0.1,0.2l-0.6,0.4h-0.2V89.2z"/>
		<path d="M118.2,90.3c0-0.4,0.1-0.6,0.2-0.8s0.3-0.3,0.5-0.3c0.2,0,0.4,0.1,0.5,0.3c0.1,0.2,0.2,0.5,0.2,0.8c0,0.4-0.1,0.6-0.2,0.8
			s-0.3,0.3-0.5,0.3c-0.2,0-0.4-0.1-0.5-0.3S118.2,90.7,118.2,90.3z M119.4,90.3c0-0.3,0-0.5-0.1-0.7c-0.1-0.1-0.2-0.2-0.4-0.2
			c-0.2,0-0.3,0.1-0.4,0.2c-0.1,0.1-0.1,0.4-0.1,0.7c0,0.3,0,0.5,0.1,0.7c0.1,0.1,0.2,0.2,0.4,0.2c0.2,0,0.3-0.1,0.4-0.2
			C119.3,90.9,119.4,90.6,119.4,90.3z"/>
		<path d="M115.1,90.3c0-0.4,0.1-0.6,0.2-0.8s0.3-0.3,0.5-0.3c0.2,0,0.4,0.1,0.5,0.3c0.1,0.2,0.2,0.5,0.2,0.8c0,0.4-0.1,0.6-0.2,0.8
			s-0.3,0.3-0.5,0.3c-0.2,0-0.4-0.1-0.5-0.3S115.1,90.7,115.1,90.3z M116.3,90.3c0-0.3,0-0.5-0.1-0.7c-0.1-0.1-0.2-0.2-0.4-0.2
			c-0.2,0-0.3,0.1-0.4,0.2c-0.1,0.1-0.1,0.4-0.1,0.7c0,0.3,0,0.5,0.1,0.7c0.1,0.1,0.2,0.2,0.4,0.2c0.2,0,0.3-0.1,0.4-0.2
			C116.2,90.9,116.3,90.6,116.3,90.3z"/>
		<path d="M113.6,89.2h0.2v1.5c0,0.1,0,0.2,0,0.4c0,0,0,0,0.1-0.1s0.1-0.1,0.3-0.3l0.1,0.2l-0.6,0.4h-0.2V89.2z"/>
		<path d="M111.6,89.2h0.2v1.5c0,0.1,0,0.2,0,0.4c0,0,0,0,0.1-0.1s0.1-0.1,0.3-0.3l0.1,0.2l-0.6,0.4h-0.2V89.2z"/>
		<path d="M109.6,89.2h0.2v1.5c0,0.1,0,0.2,0,0.4c0,0,0,0,0.1-0.1s0.1-0.1,0.3-0.3l0.1,0.2l-0.6,0.4h-0.2V89.2z"/>
		<path d="M107,90.3c0-0.4,0.1-0.6,0.2-0.8s0.3-0.3,0.5-0.3c0.2,0,0.4,0.1,0.5,0.3c0.1,0.2,0.2,0.5,0.2,0.8c0,0.4-0.1,0.6-0.2,0.8
			s-0.3,0.3-0.5,0.3c-0.2,0-0.4-0.1-0.5-0.3S107,90.7,107,90.3z M108.2,90.3c0-0.3,0-0.5-0.1-0.7c-0.1-0.1-0.2-0.2-0.4-0.2
			c-0.2,0-0.3,0.1-0.4,0.2c-0.1,0.1-0.1,0.4-0.1,0.7c0,0.3,0,0.5,0.1,0.7c0.1,0.1,0.2,0.2,0.4,0.2c0.2,0,0.3-0.1,0.4-0.2
			C108.2,90.9,108.2,90.6,108.2,90.3z"/>
		<path d="M105.5,89.2h0.2v1.5c0,0.1,0,0.2,0,0.4c0,0,0,0,0.1-0.1s0.1-0.1,0.3-0.3l0.1,0.2l-0.6,0.4h-0.2V89.2z"/>
		<path d="M103,90.3c0-0.4,0.1-0.6,0.2-0.8s0.3-0.3,0.5-0.3c0.2,0,0.4,0.1,0.5,0.3c0.1,0.2,0.2,0.5,0.2,0.8c0,0.4-0.1,0.6-0.2,0.8
			s-0.3,0.3-0.5,0.3c-0.2,0-0.4-0.1-0.5-0.3S103,90.7,103,90.3z M104.2,90.3c0-0.3,0-0.5-0.1-0.7c-0.1-0.1-0.2-0.2-0.4-0.2
			c-0.2,0-0.3,0.1-0.4,0.2c-0.1,0.1-0.1,0.4-0.1,0.7c0,0.3,0,0.5,0.1,0.7c0.1,0.1,0.2,0.2,0.4,0.2c0.2,0,0.3-0.1,0.4-0.2
			C104.1,90.9,104.2,90.6,104.2,90.3z"/>
		<path d="M101.5,89.2h0.2v1.5c0,0.1,0,0.2,0,0.4c0,0,0,0,0.1-0.1s0.1-0.1,0.3-0.3l0.1,0.2l-0.6,0.4h-0.2V89.2z"/>
		<path d="M97.9,90.3c0-0.4,0.1-0.6,0.2-0.8s0.3-0.3,0.5-0.3c0.2,0,0.4,0.1,0.5,0.3c0.1,0.2,0.2,0.5,0.2,0.8c0,0.4-0.1,0.6-0.2,0.8
			s-0.3,0.3-0.5,0.3c-0.2,0-0.4-0.1-0.5-0.3S97.9,90.7,97.9,90.3z M99.1,90.3c0-0.3,0-0.5-0.1-0.7c-0.1-0.1-0.2-0.2-0.4-0.2
			c-0.2,0-0.3,0.1-0.4,0.2c-0.1,0.1-0.1,0.4-0.1,0.7c0,0.3,0,0.5,0.1,0.7c0.1,0.1,0.2,0.2,0.4,0.2c0.2,0,0.3-0.1,0.4-0.2
			C99,90.9,99.1,90.6,99.1,90.3z"/>
		<path d="M96.4,89.2h0.2v1.5c0,0.1,0,0.2,0,0.4c0,0,0,0,0.1-0.1s0.1-0.1,0.3-0.3l0.1,0.2l-0.6,0.4h-0.2V89.2z"/>
		<path d="M94.4,89.2h0.2v1.5c0,0.1,0,0.2,0,0.4c0,0,0,0,0.1-0.1s0.1-0.1,0.3-0.3l0.1,0.2l-0.6,0.4h-0.2V89.2z"/>
		<path d="M91.8,90.3c0-0.4,0.1-0.6,0.2-0.8s0.3-0.3,0.5-0.3c0.2,0,0.4,0.1,0.5,0.3c0.1,0.2,0.2,0.5,0.2,0.8c0,0.4-0.1,0.6-0.2,0.8
			s-0.3,0.3-0.5,0.3c-0.2,0-0.4-0.1-0.5-0.3S91.8,90.7,91.8,90.3z M93,90.3c0-0.3,0-0.5-0.1-0.7c-0.1-0.1-0.2-0.2-0.4-0.2
			c-0.2,0-0.3,0.1-0.4,0.2c-0.1,0.1-0.1,0.4-0.1,0.7c0,0.3,0,0.5,0.1,0.7c0.1,0.1,0.2,0.2,0.4,0.2c0.2,0,0.3-0.1,0.4-0.2
			C93,90.9,93,90.6,93,90.3z"/>
		<path d="M90.3,89.2h0.2v1.5c0,0.1,0,0.2,0,0.4c0,0,0,0,0.1-0.1s0.1-0.1,0.3-0.3l0.1,0.2l-0.6,0.4h-0.2V89.2z"/>
		<path d="M88.3,89.2h0.2v1.5c0,0.1,0,0.2,0,0.4c0,0,0,0,0.1-0.1s0.1-0.1,0.3-0.3l0.1,0.2l-0.6,0.4h-0.2V89.2z"/>
		<path d="M86.3,89.2h0.2v1.5c0,0.1,0,0.2,0,0.4c0,0,0,0,0.1-0.1s0.1-0.1,0.3-0.3l0.1,0.2l-0.6,0.4h-0.2V89.2z"/>
		<path d="M83.8,90.3c0-0.4,0.1-0.6,0.2-0.8s0.3-0.3,0.5-0.3c0.2,0,0.4,0.1,0.5,0.3c0.1,0.2,0.2,0.5,0.2,0.8c0,0.4-0.1,0.6-0.2,0.8
			s-0.3,0.3-0.5,0.3c-0.2,0-0.4-0.1-0.5-0.3S83.8,90.7,83.8,90.3z M84.9,90.3c0-0.3,0-0.5-0.1-0.7c-0.1-0.1-0.2-0.2-0.4-0.2
			c-0.2,0-0.3,0.1-0.4,0.2C84.1,89.8,84,90,84,90.3c0,0.3,0,0.5,0.1,0.7c0.1,0.1,0.2,0.2,0.4,0.2c0.2,0,0.3-0.1,0.4-0.2
			C84.9,90.9,84.9,90.6,84.9,90.3z"/>
		<path d="M80.7,90.3c0-0.4,0.1-0.6,0.2-0.8c0.1-0.2,0.3-0.3,0.5-0.3c0.2,0,0.4,0.1,0.5,0.3c0.1,0.2,0.2,0.5,0.2,0.8
			c0,0.4-0.1,0.6-0.2,0.8s-0.3,0.3-0.5,0.3c-0.2,0-0.4-0.1-0.5-0.3C80.7,90.9,80.7,90.7,80.7,90.3z M81.9,90.3c0-0.3,0-0.5-0.1-0.7
			c-0.1-0.1-0.2-0.2-0.4-0.2c-0.2,0-0.3,0.1-0.4,0.2c-0.1,0.1-0.1,0.4-0.1,0.7c0,0.3,0,0.5,0.1,0.7c0.1,0.1,0.2,0.2,0.4,0.2
			c0.2,0,0.3-0.1,0.4-0.2C81.8,90.9,81.9,90.6,81.9,90.3z"/>
		<path d="M79.2,89.2h0.2v1.5c0,0.1,0,0.2,0,0.4c0,0,0,0,0.1-0.1s0.1-0.1,0.3-0.3l0.1,0.2l-0.6,0.4h-0.2V89.2z"/>
		<path d="M77.2,89.2h0.2v1.5c0,0.1,0,0.2,0,0.4c0,0,0,0,0.1-0.1s0.1-0.1,0.3-0.3l0.1,0.2l-0.6,0.4h-0.2V89.2z"/>
		<path d="M73.9,89.3c0.2-0.3,0.5-0.5,0.7-0.5c0.2-0.1,0.4,0,0.6,0.1c0.2,0.1,0.3,0.3,0.2,0.6c0,0.2-0.2,0.5-0.4,0.7
			c-0.2,0.3-0.5,0.5-0.7,0.5c-0.2,0.1-0.4,0-0.6-0.1c-0.2-0.1-0.3-0.3-0.2-0.6C73.6,89.8,73.7,89.6,73.9,89.3z M74.8,90
			c0.2-0.2,0.3-0.4,0.4-0.6c0-0.2,0-0.3-0.1-0.4c-0.1-0.1-0.3-0.1-0.4-0.1c-0.1,0.1-0.3,0.2-0.5,0.4c-0.2,0.2-0.3,0.4-0.4,0.6
			c0,0.2,0,0.3,0.1,0.4c0.1,0.1,0.3,0.1,0.4,0.1C74.4,90.4,74.6,90.3,74.8,90z"/>
		<path d="M73.5,87.5l0.2,0.2l-1,1.2c-0.1,0.1-0.2,0.2-0.2,0.3c0,0,0.1,0,0.1,0c0,0,0.2,0,0.5,0l0,0.2l-0.7,0l-0.2-0.1L73.5,87.5z"
			/>
		<path d="M70.8,86.7c0.2-0.3,0.5-0.5,0.7-0.5c0.2-0.1,0.4,0,0.6,0.1c0.2,0.1,0.3,0.3,0.2,0.6c0,0.2-0.2,0.5-0.4,0.7
			c-0.2,0.3-0.5,0.5-0.7,0.5c-0.2,0.1-0.4,0-0.6-0.1c-0.2-0.1-0.3-0.3-0.2-0.6C70.5,87.2,70.6,87,70.8,86.7z M71.7,87.4
			c0.2-0.2,0.3-0.4,0.4-0.6c0-0.2,0-0.3-0.1-0.4c-0.1-0.1-0.3-0.1-0.4-0.1c-0.1,0.1-0.3,0.2-0.5,0.5c-0.2,0.2-0.3,0.4-0.4,0.6
			c0,0.2,0,0.3,0.1,0.4c0.1,0.1,0.3,0.1,0.4,0.1C71.4,87.8,71.5,87.7,71.7,87.4z"/>
		<path d="M70.4,84.9l0.2,0.2l-1,1.2c-0.1,0.1-0.2,0.2-0.2,0.3c0,0,0.1,0,0.1,0c0,0,0.2,0,0.5,0l0,0.2l-0.7,0L69,86.5L70.4,84.9z"/>
		<path d="M68.8,83.6l0.2,0.2l-1,1.2c-0.1,0.1-0.2,0.2-0.2,0.3c0,0,0.1,0,0.1,0c0,0,0.2,0,0.4,0l0,0.2l-0.7,0l-0.2-0.1L68.8,83.6z"
			/>
	</g>
</g>
<g id="Layer_3">
	<polygon points="129.8,75.8 129.8,78.3 80.9,78.3 82.3,80.6 129.8,80.6 132.6,78.2 132.6,75.4 	"/>
	<rect x="131.6" y="60.5" width="1" height="15.8"/>
</g>
</svg>
